name Run_20002_IK.mot
datacolumns 164
datarows 4
range 1.56 1.59
endheader
time	         pelvis_tilt	         pelvis_list	     pelvis_rotation	           pelvis_tx	           pelvis_ty	           pelvis_tz	       hip_flexion_r	     hip_adduction_r	      hip_rotation_r	        knee_angle_r	       ankle_angle_r	       hip_flexion_l	     hip_adduction_l	      hip_rotation_l	        knee_angle_l	       ankle_angle_l	    lumbar_extension	      lumbar_bending	     lumbar_rotation	          arm_flex_r	           arm_add_r	           arm_rot_r	        elbow_flex_r	           pro_sup_r	          arm_flex_l	           arm_add_l	           arm_rot_l	        elbow_flex_l	           pro_sup_l	    subtalar_angle_r	         mtp_angle_r	    subtalar_angle_l	         mtp_angle_l	        wrist_flex_r	         wrist_dev_r	        wrist_flex_l	         wrist_dev_l	             LASI_tx	             LASI_ty	             LASI_tz	             RASI_tx	             RASI_ty	             RASI_tz	             LPSI_tx	             LPSI_ty	             LPSI_tz	             RPSI_tx	             RPSI_ty	             RPSI_tz	             RTH1_tx	             RTH1_ty	             RTH1_tz	             RTH2_tx	             RTH2_ty	             RTH2_tz	             RTH3_tx	             RTH3_ty	             RTH3_tz	             LTH1_tx	             LTH1_ty	             LTH1_tz	             LTH2_tx	             LTH2_ty	             LTH2_tz	             LTH3_tx	             LTH3_ty	             LTH3_tz	             RTB1_tx	             RTB1_ty	             RTB1_tz	             RTB2_tx	             RTB2_ty	             RTB2_tz	             RTB3_tx	             RTB3_ty	             RTB3_tz	             LTB1_tx	             LTB1_ty	             LTB1_tz	             LTB2_tx	             LTB2_ty	             LTB2_tz	             LTB3_tx	             LTB3_ty	             LTB3_tz	             RCAL_tx	             RCAL_ty	             RCAL_tz	             RTOE_tx	             RTOE_ty	             RTOE_tz	             RMT5_tx	             RMT5_ty	             RMT5_tz	             LCAL_tx	             LCAL_ty	             LCAL_tz	             LTOE_tx	             LTOE_ty	             LTOE_tz	             LMT5_tx	             LMT5_ty	             LMT5_tz	             LACR_tx	             LACR_ty	             LACR_tz	             RACR_tx	             RACR_ty	             RACR_tz	             CLAV_tx	             CLAV_ty	             CLAV_tz	               C7_tx	               C7_ty	               C7_tz	             RUA1_tx	             RUA1_ty	             RUA1_tz	             RUA2_tx	             RUA2_ty	             RUA2_tz	             RUA3_tx	             RUA3_ty	             RUA3_tz	             RLEL_tx	             RLEL_ty	             RLEL_tz	             RMEL_tx	             RMEL_ty	             RMEL_tz	             LUA1_tx	             LUA1_ty	             LUA1_tz	             LUA2_tx	             LUA2_ty	             LUA2_tz	             LUA3_tx	             LUA3_ty	             LUA3_tz	             LLEL_tx	             LLEL_ty	             LLEL_tz	             LMEL_tx	             LMEL_ty	             LMEL_tz	      RFAsuperior_tx	      RFAsuperior_ty	      RFAsuperior_tz	        RFAradius_tx	        RFAradius_ty	        RFAradius_tz	          RFAulna_tx	          RFAulna_ty	          RFAulna_tz	      LFAsuperior_tx	      LFAsuperior_ty	      LFAsuperior_tz	        LFAradius_tx	        LFAradius_ty	        LFAradius_tz	          LFAulna_tx	          LFAulna_ty	          LFAulna_tz	
1.56	        -14.22968048	          1.85888765	         -2.93758862	          1.01198322	          0.98647124	         -0.35649502	         39.04195117	          0.60195901	          5.24051258	        -75.47505515	          6.55626004	         21.10435580	          7.67458984	          0.29673671	        -34.54352760	         21.53866203	          1.25204032	         -1.47285305	         -3.05029411	        -33.73353986	        -20.79924150	         -8.29202080	         87.37446835	        127.44302299	        -24.11565544	        -12.20628255	         -9.02221979	        113.92747864	         97.86556794	          0.00000000	          0.00000000	          0.00000000	          0.00000000	          0.00000000	          0.00000000	          0.00000000	          0.00000000	          1.04432954	          1.01632680	         -0.47958944	          1.02325757	          1.02967341	         -0.23234854	          0.87512377	          1.09217791	         -0.42395303	          0.86564486	          1.08599329	         -0.31054005	          0.97320418	          0.91209996	         -0.18319745	          0.95956763	          0.76063873	         -0.20576584	          1.05656898	          0.63034800	         -0.20688097	          0.98082257	          0.90013096	         -0.53475477	          0.91026263	          0.74626488	         -0.48818442	          0.96668458	          0.61397273	         -0.47444784	          1.03769144	          0.40246710	         -0.26814696	          0.95165055	          0.43280735	         -0.19891988	          0.88311545	          0.30087099	         -0.26928845	          0.97997685	          0.38731602	         -0.39112457	          0.86422731	          0.31693753	         -0.44691574	          0.86103115	          0.20319643	         -0.37987522	          0.69805842	          0.29803545	         -0.26144268	          0.86178754	          0.11992598	         -0.28958776	          0.81092006	          0.13192150	         -0.19397017	          0.68186531	          0.11846259	         -0.36109981	          0.91467733	          0.07074438	         -0.34130152	          0.86470638	          0.03868182	         -0.43936882	          1.03197630	          1.51162128	         -0.52308639	          1.02959820	          1.50069364	         -0.19700238	          1.09202100	          1.46571633	         -0.32562182	          0.97225409	          1.53750769	         -0.36710597	          0.89985941	          1.42805199	         -0.14466732	          0.92534791	          1.36552370	         -0.10539498	          0.83949011	          1.30956418	         -0.07055510	          0.79135267	          1.26549125	         -0.04383820	          0.78773605	          1.23524610	         -0.12862557	          0.93826615	          1.41194940	         -0.58371744	          0.96919283	          1.33239622	         -0.60185431	          0.90202706	          1.26402364	         -0.62975883	          0.88507940	          1.19970729	         -0.64949185	          0.86292199	          1.18228603	         -0.56168181	          0.85232567	          1.17334623	         -0.03310771	          0.96125432	          1.05012867	         -0.11426044	          0.92995273	          1.03239281	         -0.05433307	          0.95278090	          1.14994244	         -0.63743100	          1.11503384	          1.16019802	         -0.53953763	          1.10985982	          1.09367125	         -0.56612056	
1.57	        -14.13970218	          1.38293873	         -3.12163430	          1.01302725	          0.99355567	         -0.35637620	         39.40424656	          1.00534729	          4.60950623	        -72.67521734	          7.20839981	         18.52509375	          7.20069622	          0.68331869	        -32.11746484	         19.34659673	          1.29868047	         -0.77384467	         -3.71432681	        -35.27078258	        -21.30492492	         -8.77378168	         88.95733530	        125.85217825	        -24.60335025	        -12.26879776	         -8.97576482	        115.97744478	         97.65645186	          0.00000000	          0.00000000	          0.00000000	          0.00000000	          0.00000000	          0.00000000	          0.00000000	          0.00000000	          1.04450808	          1.02332414	         -0.47993694	          1.02350540	          1.03670360	         -0.23266215	          0.87693641	          1.09842325	         -0.42522702	          0.86623764	          1.09354349	         -0.31166356	          0.97441954	          0.92041865	         -0.18099902	          0.96192879	          0.76840062	         -0.20434535	          1.06085077	          0.63978665	         -0.20639759	          0.97976004	          0.90420516	         -0.53402820	          0.90299839	          0.75307911	         -0.48755568	          0.95502735	          0.61887465	         -0.47373154	          1.04935775	          0.40822596	         -0.26833787	          0.96059780	          0.43428975	         -0.20053534	          0.89935996	          0.29762083	         -0.27048993	          0.96302729	          0.39156647	         -0.39089809	          0.84736253	          0.32194658	         -0.44734338	          0.84387394	          0.20776104	         -0.38050148	          0.71565969	          0.28371076	         -0.26555408	          0.89136528	          0.11679957	         -0.28996729	          0.83847538	          0.12614617	         -0.19531840	          0.66493403	          0.12560061	         -0.36274718	          0.89532506	          0.07004442	         -0.34071734	          0.84459880	          0.03888493	         -0.43867734	          1.03401514	          1.51882693	         -0.52185009	          1.02711338	          1.50779780	         -0.19629471	          1.09149408	          1.47269633	         -0.32394994	          0.97243383	          1.54383797	         -0.36678004	          0.89576251	          1.43748036	         -0.14670018	          0.91953263	          1.37558426	         -0.10492048	          0.83216743	          1.32154675	         -0.07119707	          0.78260831	          1.27853867	         -0.04503864	          0.77981032	          1.24773854	         -0.12971353	          0.94087653	          1.41974378	         -0.58392555	          0.97220536	          1.34039747	         -0.60233982	          0.90557851	          1.27228703	         -0.63185727	          0.88837365	          1.20807039	         -0.65133146	          0.86440123	          1.19084082	         -0.56404958	          0.84291727	          1.18650552	         -0.03331224	          0.95438456	          1.06442470	         -0.11274809	          0.92113931	          1.04576950	         -0.05411629	          0.95668782	          1.16033276	         -0.63771091	          1.11639035	          1.17611984	         -0.53691925	          1.11359020	          1.10926283	         -0.56277787	
1.58	        -14.04878790	          0.89207418	         -3.34028731	          1.01429601	          1.00096703	         -0.35603755	         39.53489233	          1.42636196	          3.88795725	        -69.43869404	          7.75423968	         16.03089649	          6.60025850	          0.82180474	        -29.78201596	         16.89544364	          1.35280084	         -0.06779735	         -4.21646538	        -36.82529698	        -21.62675718	         -9.41772389	         90.55401687	        123.92080453	        -25.10252319	        -12.39799514	         -8.87809419	        117.97812418	         97.75323139	          0.00000000	          0.00000000	          0.00000000	          0.00000000	          0.00000000	          0.00000000	          0.00000000	          0.00000000	          1.04486801	          1.03064466	         -0.47999726	          1.02391784	          1.04411142	         -0.23272443	          0.87892297	          1.10508286	         -0.42622361	          0.86723699	          1.10117954	         -0.31276215	          0.97514340	          0.92907110	         -0.17860189	          0.96380814	          0.77650083	         -0.20271804	          1.06400566	          0.64919029	         -0.20601875	          0.97900153	          0.90899920	         -0.53327941	          0.89629519	          0.76059015	         -0.48724484	          0.94397359	          0.62472805	         -0.47347656	          1.06019317	          0.41388019	         -0.26849152	          0.96894853	          0.43500622	         -0.20211813	          0.91547385	          0.29375194	         -0.27209325	          0.94683239	          0.39675145	         -0.39136130	          0.83108389	          0.32792302	         -0.44814673	          0.82730845	          0.21333768	         -0.38137752	          0.73440212	          0.26861909	         -0.27005964	          0.92154016	          0.11407947	         -0.29048832	          0.86657175	          0.12028775	         -0.19714529	          0.64881552	          0.13406698	         -0.36453188	          0.87639704	          0.06962691	         -0.34115338	          0.82492249	          0.03965108	         -0.43895734	          1.03595305	          1.52660509	         -0.52065183	          1.02520192	          1.51498808	         -0.19565231	          1.09101579	          1.47999559	         -0.32253045	          0.97261502	          1.55057903	         -0.36628150	          0.89229783	          1.44711338	         -0.14858831	          0.91442678	          1.38557894	         -0.10489955	          0.82545097	          1.33364376	         -0.07226559	          0.77443307	          1.29163078	         -0.04679547	          0.77248323	          1.26032942	         -0.13138691	          0.94350905	          1.42819038	         -0.58427911	          0.97493859	          1.34900259	         -0.60284479	          0.90840348	          1.28138315	         -0.63371651	          0.89126725	          1.21715213	         -0.65329892	          0.86615604	          1.19973640	         -0.56662049	          0.83409251	          1.19965656	         -0.03411404	          0.94873783	          1.07910224	         -0.11136907	          0.91321754	          1.05941525	         -0.05440361	          0.96018476	          1.17128900	         -0.63808059	          1.11715171	          1.19217865	         -0.53434273	          1.11668508	          1.12509662	         -0.55975969	
1.59	        -13.94777745	          0.41291500	         -3.57865729	          1.01576060	          1.00858196	         -0.35557589	         39.44395763	          1.83371535	          3.07849285	        -65.79660494	          8.14660241	         13.64508305	          5.93012406	          0.68724420	        -27.57751623	         14.12719543	          1.39459114	          0.61909252	         -4.56842198	        -38.38204701	        -21.77487272	        -10.17853325	         92.13837391	        122.07062663	        -25.59534008	        -12.58172175	         -8.70764377	        119.87873649	         98.05286090	          0.00000000	          0.00000000	          0.00000000	          0.00000000	          0.00000000	          0.00000000	          0.00000000	          0.00000000	          1.04537902	          1.03823541	         -0.47988972	          1.02447869	          1.05174699	         -0.23256032	          0.88103592	          1.11196616	         -0.42695991	          0.86861088	          1.10875849	         -0.31379982	          0.97537091	          0.93787793	         -0.17631740	          0.96525749	          0.78476190	         -0.20119409	          1.06593993	          0.65834302	         -0.20586734	          0.97847986	          0.91436652	         -0.53251411	          0.89022447	          0.76854449	         -0.48717691	          0.93359081	          0.63131421	         -0.47369836	          1.07016347	          0.41941875	         -0.26847453	          0.97675965	          0.43491402	         -0.20359602	          0.93242202	          0.28971509	         -0.27435349	          0.93172203	          0.40269791	         -0.39281599	          0.81549769	          0.33473693	         -0.44928544	          0.81163978	          0.21982396	         -0.38264304	          0.75434604	          0.25290828	         -0.27485343	          0.95222449	          0.11184063	         -0.29127986	          0.89516084	          0.11443018	         -0.19924627	          0.63375181	          0.14368887	         -0.36637804	          0.85786858	          0.06920104	         -0.34219236	          0.80566366	          0.04089885	         -0.43991701	          1.03778371	          1.53472831	         -0.51939555	          1.02385797	          1.52220830	         -0.19505476	          1.09061729	          1.48746680	         -0.32123602	          0.97280702	          1.55760320	         -0.36569354	          0.88944749	          1.45692725	         -0.15010922	          0.90999106	          1.39545237	         -0.10525384	          0.81939241	          1.34573748	         -0.07378955	          0.76697713	          1.30465727	         -0.04903219	          0.76602819	          1.27299900	         -0.13360914	          0.94601325	          1.43705843	         -0.58463465	          0.97735694	          1.35804719	         -0.60340074	          0.91061964	          1.29107396	         -0.63535407	          0.89382539	          1.22673909	         -0.65531832	          0.86794031	          1.20876812	         -0.56921904	          0.82607501	          1.21271084	         -0.03548682	          0.94392067	          1.09371829	         -0.11032783	          0.90624392	          1.07307270	         -0.05511533	          0.96333401	          1.18266369	         -0.63852505	          1.11737694	          1.20799801	         -0.53182985	          1.11926530	          1.14070051	         -0.55694944	
